{
  "asset": {
    "version": "2.0",
    "generator": "THREE.GLTFExporter"
  },
  "scenes": [
    {
      "nodes": [
        0
      ]
    }
  ],
  "scene": 0,
  "nodes": [
    {
      "children": [
        4
      ],
      "matrix": [
        0.01,
        0,
        0,
        0,
        0,
        0.01,
        0,
        0,
        0,
        0,
        0.01,
        0,
        0,
        0,
        0,
        1
      ]
    },
    {
      "matrix": [
        0.03837036709961248,
        4.471049285523698e-7,
        3.7569821275202553e-7,
        0,
        6.423679302610731e-7,
        0.055095474774799605,
        -0.0000055281201054754235,
        0,
        3.6100641909470025e-7,
        -0.0000036972504583923844,
        0.03689693167118534,
        0,
        0.8061085561290476,
        -5.0075334433711465,
        0.2885536286060094,
        1.0000000000000004
      ],
      "name": "Cube",
      "mesh": 0
    },
    {
      "matrix": [
        0.999904300997626,
        1.4837466687689545e-8,
        0.01383433577909684,
        0,
        0.0012777462908697954,
        0.9957255340562368,
        -0.09235273787407831,
        0,
        -0.013775202752235179,
        0.09236157658042564,
        0.9956302440970307,
        0,
        -13.775202752235181,
        92.3615765804253,
        995.6302440970285,
        1
      ],
      "camera": 0
    },
    {
      "matrix": [
        1,
        0,
        0,
        0,
        0,
        1,
        0,
        0,
        0,
        0,
        1,
        0,
        0,
        1,
        0,
        1
      ],
      "name": "Default Ambient Light"
    },
    {
      "name": "Scene 1",
      "children": [
        1,
        2,
        3
      ]
    }
  ],
  "bufferViews": [
    {
      "buffer": 0,
      "byteOffset": 0,
      "byteLength": 165888,
      "target": 34962,
      "byteStride": 12
    },
    {
      "buffer": 0,
      "byteOffset": 165888,
      "byteLength": 165888,
      "target": 34962,
      "byteStride": 12
    },
    {
      "buffer": 0,
      "byteOffset": 331776,
      "byteLength": 82944,
      "target": 34963
    }
  ],
  "buffers": [
    {
      "byteLength": 414720,
      "uri": "data:application/octet-stream;base64,"
    }
  ],
  "accessors": [
    {
      "bufferView": 0,
      "componentType": 5126,
      "count": 13824,
      "max": [
        302.8905334472656,
        420.09033203125,
        322.86175537109375
      ],
      "min": [
        -302.8923645019531,
        -162.73165893554688,
        -322.85333251953125
      ],
      "type": "VEC3"
    },
    {
      "bufferView": 1,
      "componentType": 5126,
      "count": 13824,
      "max": [
        0.9946346282958984,
        1,
        0.9900383353233337
      ],
      "min": [
        -0.9946337342262268,
        -1,
        -0.9900394082069397
      ],
      "type": "VEC3"
    },
    {
      "bufferView": 2,
      "componentType": 5125,
      "count": 20736,
      "max": [
        13823
      ],
      "min": [
        0
      ],
      "type": "SCALAR"
    }
  ],
  "materials": [
    {
      "pbrMetallicRoughness": {
        "baseColorFactor": [
          0.45921625057871496,
          1,
          0.17464740364527906,
          1
        ],
        "metallicFactor": 0,
        "roughnessFactor": 0.99
      },
      "doubleSided": false
    }
  ],
  "meshes": [
    {
      "primitives": [
        {
          "mode": 4,
          "attributes": {
            "POSITION": 0,
            "NORMAL": 1
          },
          "extras": {
            "type": "SubdivGeometry",
            "parameters": {
              "width": 607.5252380371094,
              "height": 582.8219909667969,
              "depth": 647.5719299316406
            }
          },
          "indices": 2,
          "material": 0
        }
      ]
    }
  ],
  "cameras": [
    {
      "type": "orthographic",
      "orthographic": {
        "xmag": 7.570178700810369,
        "ymag": 3.078686047219101,
        "zfar": 100000,
        "znear": 0
      }
    }
  ]
}