{
  "asset": {
    "version": "2.0",
    "generator": "THREE.GLTFExporter"
  },
  "scenes": [
    {
      "nodes": [
        0
      ]
    }
  ],
  "scene": 0,
  "nodes": [
    {
      "children": [
        6
      ],
      "matrix": [
        0.01,
        0,
        0,
        0,
        0,
        0.01,
        0,
        0,
        0,
        0,
        0.01,
        0,
        0,
        0,
        0,
        1
      ]
    },
    {
      "matrix": [
        1,
        0,
        0,
        0,
        0,
        1.0000000000000016,
        0,
        0,
        0,
        0,
        1.0000000000000016,
        0,
        0.6401052879746918,
        -45.331763680158616,
        0.7095663078769974,
        1
      ],
      "name": "Cylinder",
      "mesh": 0
    },
    {
      "matrix": [
        1,
        0,
        0,
        0,
        0,
        1,
        0,
        0,
        0,
        0,
        1,
        0,
        0,
        -13.667041778564482,
        0,
        1
      ],
      "name": "Cube",
      "mesh": 1
    },
    {
      "matrix": [
        0.2751627302561476,
        -0.007088976707246154,
        0.09105996183649791,
        0,
        0.008194207877435064,
        0.2883458691078846,
        -0.003705081269003306,
        0,
        -0.09062684061435497,
        0.005989468966884369,
        0.27367219927806297,
        0,
        0.28156194558187053,
        1.8534957591868988,
        0.6621856746241974,
        1.0000000000000002
      ],
      "name": "beaker",
      "children": [
        1,
        2
      ]
    },
    {
      "matrix": [
        0.22307784691435473,
        -1.7429185428241567e-8,
        0.9748006330609637,
        0,
        0.5479351904954775,
        0.8270694509283812,
        -0.12539198681618705,
        0,
        -0.8062278221648894,
        0.5620997450106393,
        0.1845008819118048,
        0,
        -606.8762377425123,
        417.8894735942167,
        208.4663875901806,
        1
      ],
      "camera": 0
    },
    {
      "matrix": [
        1,
        0,
        0,
        0,
        0,
        1,
        0,
        0,
        0,
        0,
        1,
        0,
        0,
        1,
        0,
        1
      ],
      "name": "Default Ambient Light"
    },
    {
      "name": "Scene 1",
      "children": [
        3,
        4,
        5
      ]
    }
  ],
  "bufferViews": [
    {
      "buffer": 0,
      "byteOffset": 0,
      "byteLength": 18720,
      "target": 34962,
      "byteStride": 12
    },
    {
      "buffer": 0,
      "byteOffset": 18720,
      "byteLength": 18720,
      "target": 34962,
      "byteStride": 12
    },
    {
      "buffer": 0,
      "byteOffset": 37440,
      "byteLength": 12480,
      "target": 34962,
      "byteStride": 8
    },
    {
      "buffer": 0,
      "byteOffset": 49920,
      "byteLength": 17280,
      "target": 34963
    },
    {
      "buffer": 0,
      "byteOffset": 67200,
      "byteLength": 129024,
      "target": 34962,
      "byteStride": 12
    },
    {
      "buffer": 0,
      "byteOffset": 196224,
      "byteLength": 129024,
      "target": 34962,
      "byteStride": 12
    },
    {
      "buffer": 0,
      "byteOffset": 325248,
      "byteLength": 64512,
      "target": 34963
    }
  ],
  "buffers": [
    {
      "byteLength": 389760,
      "uri": "data:application/octet-stream;base64,"
    }
  ],
  "accessors": [
    {
      "bufferView": 0,
      "componentType": 5126,
      "count": 1560,
      "max": [
        57.452171325683594,
        31,
        57.452171325683594
      ],
      "min": [
        -57.452171325683594,
        -31,
        -57.452171325683594
      ],
      "type": "VEC3"
    },
    {
      "bufferView": 1,
      "componentType": 5126,
      "count": 1560,
      "max": [
        0.9946037530899048,
        1,
        0.9946037530899048
      ],
      "min": [
        -0.9946037530899048,
        -1,
        -0.9946037530899048
      ],
      "type": "VEC3"
    },
    {
      "bufferView": 2,
      "componentType": 5126,
      "count": 1560,
      "max": [
        1,
        1
      ],
      "min": [
        0,
        0
      ],
      "type": "VEC2"
    },
    {
      "bufferView": 3,
      "componentType": 5123,
      "count": 8640,
      "max": [
        1558
      ],
      "min": [
        0
      ],
      "type": "SCALAR"
    },
    {
      "bufferView": 4,
      "componentType": 5126,
      "count": 10752,
      "max": [
        71.91840362548828,
        97.41448974609375,
        71.91840362548828
      ],
      "min": [
        -71.91840362548828,
        -69.96210479736328,
        -71.91840362548828
      ],
      "type": "VEC3"
    },
    {
      "bufferView": 5,
      "componentType": 5126,
      "count": 10752,
      "max": [
        0.9999749064445496,
        1,
        0.9999749064445496
      ],
      "min": [
        -0.9999749064445496,
        -1,
        -0.9999749064445496
      ],
      "type": "VEC3"
    },
    {
      "bufferView": 6,
      "componentType": 5125,
      "count": 16128,
      "max": [
        10751
      ],
      "min": [
        0
      ],
      "type": "SCALAR"
    }
  ],
  "materials": [
    {
      "pbrMetallicRoughness": {
        "baseColorFactor": [
          0.07818742179702058,
          0.4910208498384856,
          0.1045782375256421,
          1
        ],
        "metallicFactor": 0,
        "roughnessFactor": 0.994
      },
      "doubleSided": false
    },
    {
      "pbrMetallicRoughness": {
        "metallicFactor": 0.2,
        "roughnessFactor": 0.1
      },
      "doubleSided": false
    }
  ],
  "meshes": [
    {
      "primitives": [
        {
          "mode": 4,
          "attributes": {
            "POSITION": 0,
            "NORMAL": 1,
            "TEXCOORD_0": 2
          },
          "extras": {
            "parameters": {
              "width": 120,
              "radialSegments": 64,
              "heightSegments": 1,
              "openEnded": false,
              "thetaStart": 0,
              "thetaLength": 360,
              "cornerRadius": 6,
              "cornerSegments": 8,
              "hollow": 0,
              "depth": 120,
              "height": 62,
              "radiusTop": 37.84615384615385,
              "radiusBottom": 60,
              "type": "CylinderGeometry"
            },
            "type": "CylinderGeometry"
          },
          "indices": 3,
          "material": 0
        }
      ]
    },
    {
      "primitives": [
        {
          "mode": 4,
          "attributes": {
            "POSITION": 4,
            "NORMAL": 5
          },
          "extras": {
            "type": "SubdivGeometry",
            "parameters": {
              "width": 159.5849609375,
              "height": 168.27857208251953,
              "depth": 159.5849609375
            }
          },
          "indices": 6,
          "material": 1
        }
      ]
    }
  ],
  "cameras": [
    {
      "type": "perspective",
      "perspective": {
        "aspectRatio": 2.458899213724089,
        "yfov": 0.7853981633974483,
        "zfar": 100000,
        "znear": 70
      }
    }
  ]
}