{
  "asset": {
    "version": "2.0",
    "generator": "THREE.GLTFExporter"
  },
  "scenes": [
    {
      "nodes": [
        0
      ]
    }
  ],
  "scene": 0,
  "nodes": [
    {
      "children": [
        5
      ],
      "matrix": [
        0.01,
        0,
        0,
        0,
        0,
        0.01,
        0,
        0,
        0,
        0,
        0.01,
        0,
        0,
        0,
        0,
        1
      ]
    },
    {
      "matrix": [
        -1.4502538431497054,
        -9.709961228564734e-17,
        0,
        0,
        2.68348059584515e-16,
        -1.5077780946806754,
        0,
        0,
        0,
        0,
        1,
        0,
        3.104698932171124e-16,
        -1.7444497447658212,
        14.393880320268043,
        1
      ],
      "name": "Cube 5",
      "mesh": 0
    },
    {
      "matrix": [
        1,
        0,
        0,
        0,
        0,
        1,
        0,
        0,
        0,
        0,
        1,
        0,
        0,
        9.482887657571055,
        -31.22029866034472,
        1
      ],
      "name": "Group",
      "children": [
        1
      ]
    },
    {
      "matrix": [
        0.13256845717546895,
        1.6653345369377348e-16,
        0.9911738516335646,
        0,
        0.2828005808302958,
        0.9584326556261621,
        -0.03782427939075522,
        0,
        -0.9499733868083688,
        0.28531884730837986,
        0.12705793846294777,
        0,
        -949.9733868083541,
        285.3188473083746,
        127.05793846295809,
        1
      ],
      "camera": 0
    },
    {
      "matrix": [
        1,
        0,
        0,
        0,
        0,
        1,
        0,
        0,
        0,
        0,
        1,
        0,
        0,
        1,
        0,
        1
      ],
      "name": "Default Ambient Light"
    },
    {
      "name": "Scene 1",
      "children": [
        2,
        3,
        4
      ]
    }
  ],
  "bufferViews": [
    {
      "buffer": 0,
      "byteOffset": 0,
      "byteLength": 1056,
      "target": 34962,
      "byteStride": 12
    },
    {
      "buffer": 0,
      "byteOffset": 1056,
      "byteLength": 1056,
      "target": 34962,
      "byteStride": 12
    },
    {
      "buffer": 0,
      "byteOffset": 2112,
      "byteLength": 528,
      "target": 34963
    }
  ],
  "buffers": [
    {
      "byteLength": 2640,
      "uri": "data:application/octet-stream;base64,"
    }
  ],
  "accessors": [
    {
      "bufferView": 0,
      "componentType": 5126,
      "count": 88,
      "max": [
        22.49999237060547,
        24.424081802368164,
        43.66529083251953
      ],
      "min": [
        -22.49999237060547,
        -26.73801612854004,
        -42.71825408935547
      ],
      "type": "VEC3"
    },
    {
      "bufferView": 1,
      "componentType": 5126,
      "count": 88,
      "max": [
        1,
        1,
        0.9885917901992798
      ],
      "min": [
        -1,
        -0.999955415725708,
        -1
      ],
      "type": "VEC3"
    },
    {
      "bufferView": 2,
      "componentType": 5125,
      "count": 132,
      "max": [
        87
      ],
      "min": [
        0
      ],
      "type": "SCALAR"
    }
  ],
  "materials": [
    {
      "pbrMetallicRoughness": {
        "baseColorFactor": [
          0.17464740364527903,
          0.10461648408208657,
          0.06847816983662762,
          1
        ],
        "metallicFactor": 0,
        "roughnessFactor": 0.995
      },
      "doubleSided": false
    }
  ],
  "meshes": [
    {
      "primitives": [
        {
          "mode": 4,
          "attributes": {
            "POSITION": 0,
            "NORMAL": 1
          },
          "extras": {
            "type": "SubdivGeometry",
            "parameters": {
              "width": 45,
              "height": 51.1620979309082,
              "depth": 86.38354672841525
            }
          },
          "indices": 2,
          "material": 0
        }
      ]
    }
  ],
  "cameras": [
    {
      "type": "orthographic",
      "orthographic": {
        "xmag": 3.6917867398185242,
        "ymag": 1.5013981537808476,
        "zfar": 100000,
        "znear": 0
      }
    }
  ]
}