{
  "asset": {
    "version": "2.0",
    "generator": "THREE.GLTFExporter"
  },
  "scenes": [
    {
      "nodes": [
        0
      ]
    }
  ],
  "scene": 0,
  "nodes": [
    {
      "children": [
        13
      ],
      "matrix": [
        0.01,
        0,
        0,
        0,
        0,
        0.01,
        0,
        0,
        0,
        0,
        0.01,
        0,
        0,
        0,
        0,
        1
      ]
    },
    {
      "matrix": [
        1.2644092660274486,
        2.263066424460459e-17,
        1.2920391993803615e-16,
        0,
        -3.8739058290732095e-17,
        3.5094406992326705e-16,
        -1.2644092660274486,
        0,
        6.274856552436033e-17,
        1.2644092660274486,
        2.1056644195396023e-16,
        0,
        -3.9279952221525805e-15,
        -53.205914494226924,
        -1.6736398620321e-14,
        1
      ],
      "name": "Cube 3",
      "mesh": 0
    },
    {
      "matrix": [
        2.420161976478815e-16,
        3.5094406992326705e-16,
        -1.2644092660274486,
        0,
        -1.2644092660274486,
        -2.2630664244604575e-17,
        -4.099591758766498e-16,
        0,
        6.274856552436033e-17,
        1.2644092660274486,
        2.1056644195396023e-16,
        0,
        8.881784197001248e-16,
        43.841954706728856,
        -5.98643105679968e-15,
        1
      ],
      "name": "Cube 2",
      "mesh": 1
    },
    {
      "matrix": [
        3.579399896552299e-16,
        1.6653345369377348e-16,
        -1,
        0,
        -0.9999999999999999,
        2.1871208377741527e-17,
        -1.3589538473019852e-16,
        0,
        -3.36399428535163e-17,
        1,
        2.220446049250313e-16,
        0,
        8.0443748011827e-17,
        -6.299430489520915,
        -1.4210854715202e-14,
        1
      ],
      "name": "Cube",
      "mesh": 2
    },
    {
      "matrix": [
        0.8806266876909138,
        0,
        0,
        0,
        0,
        0.8806266876909138,
        0,
        0,
        0,
        0,
        0.8806266876909138,
        0,
        0,
        -22.593610514191706,
        8.88178419700125e-15,
        1
      ],
      "name": "Group 2",
      "children": [
        1,
        2,
        3
      ]
    },
    {
      "matrix": [
        -0.057725770269564484,
        -0.0005980077342010881,
        0.00024280710993037833,
        0,
        -0.0007107244195956305,
        0.06860754148566008,
        0.000002989461058252198,
        0,
        -0.0002857909989410372,
        -8.321183627260118e-18,
        -0.06794490307433795,
        0,
        0.7920849512089596,
        -963.1954834727372,
        0.1635309805204663,
        0.9999999999999999
      ],
      "name": "fire",
      "mesh": 3
    },
    {
      "matrix": [
        1.029681949251621,
        0,
        -0.0032700410617851716,
        0,
        0,
        1.0296871417004119,
        0,
        0,
        0.0032700410617851716,
        0,
        1.029681949251621,
        0,
        2.273736754432321e-13,
        1007.112563068516,
        -3.4106051316484814e-13,
        1
      ],
      "name": "fire",
      "children": [
        5
      ]
    },
    {
      "matrix": [
        6.292148024456957e-8,
        1.5040627724496123e-9,
        -4.454481700238769,
        0,
        4.388562507723728,
        3.917391013498199e-9,
        6.643093637391678e-8,
        0,
        -2.391751747723923e-9,
        -10.035160414149255,
        -3.177611109248466e-9,
        0,
        -1.1547766103672244e-13,
        -154.14692532418988,
        -2.2025448293997034e-13,
        0.9999999999999998
      ],
      "name": "Rectangle 10",
      "mesh": 4
    },
    {
      "matrix": [
        1.4281240276787627e-8,
        0,
        -0.6996971679702506,
        0,
        0,
        0.4058852492472539,
        0,
        0,
        0.6984575655489391,
        0,
        1.5181845456476607e-8,
        0,
        -0.013336291743257811,
        -105.19457545497593,
        -0.7973879832113652,
        0.9999999999999999
      ],
      "name": "Cube 50",
      "mesh": 5
    },
    {
      "matrix": [
        0.11702405205700478,
        0,
        0,
        0,
        0,
        0.11698156886155983,
        0,
        0,
        0,
        0,
        0.11706372171412262,
        0,
        -1.5993967668944153,
        45.73141513578276,
        0.5472991270616809,
        1
      ],
      "name": "Group",
      "children": [
        6,
        7,
        8
      ]
    },
    {
      "matrix": [
        1,
        0,
        0,
        0,
        0,
        1,
        0,
        0,
        0,
        0,
        1,
        0,
        777.2681177579143,
        271.89203514969154,
        -12.884796721657047,
        1
      ],
      "name": "checkpoint",
      "children": [
        4,
        9
      ]
    },
    {
      "matrix": [
        0.6568340115839677,
        2.7755575615628914e-17,
        0.7540351989307345,
        0,
        0.44561242195537687,
        0.8066933012045532,
        -0.38816940527399,
        0,
        -0.6082751438498663,
        0.5909703188754067,
        0.5298635971481006,
        0,
        1754.8836836336445,
        -659.5493235197696,
        -813.3363505127045,
        1
      ],
      "camera": 0
    },
    {
      "matrix": [
        1,
        0,
        0,
        0,
        0,
        1,
        0,
        0,
        0,
        0,
        1,
        0,
        0,
        1,
        0,
        1
      ],
      "name": "Default Ambient Light"
    },
    {
      "name": "Scene 1",
      "children": [
        10,
        11,
        12
      ]
    }
  ],
  "bufferViews": [
    {
      "buffer": 0,
      "byteOffset": 0,
      "byteLength": 2304,
      "target": 34962,
      "byteStride": 12
    },
    {
      "buffer": 0,
      "byteOffset": 2304,
      "byteLength": 2304,
      "target": 34962,
      "byteStride": 12
    },
    {
      "buffer": 0,
      "byteOffset": 4608,
      "byteLength": 1152,
      "target": 34963
    },
    {
      "buffer": 0,
      "byteOffset": 5760,
      "byteLength": 2304,
      "target": 34962,
      "byteStride": 12
    },
    {
      "buffer": 0,
      "byteOffset": 8064,
      "byteLength": 2304,
      "target": 34962,
      "byteStride": 12
    },
    {
      "buffer": 0,
      "byteOffset": 10368,
      "byteLength": 1152,
      "target": 34963
    },
    {
      "buffer": 0,
      "byteOffset": 11520,
      "byteLength": 1344,
      "target": 34962,
      "byteStride": 12
    },
    {
      "buffer": 0,
      "byteOffset": 12864,
      "byteLength": 1344,
      "target": 34962,
      "byteStride": 12
    },
    {
      "buffer": 0,
      "byteOffset": 14208,
      "byteLength": 672,
      "target": 34963
    },
    {
      "buffer": 0,
      "byteOffset": 14880,
      "byteLength": 5184,
      "target": 34962,
      "byteStride": 12
    },
    {
      "buffer": 0,
      "byteOffset": 20064,
      "byteLength": 5184,
      "target": 34962,
      "byteStride": 12
    },
    {
      "buffer": 0,
      "byteOffset": 25248,
      "byteLength": 2496,
      "target": 34963
    },
    {
      "buffer": 0,
      "byteOffset": 27744,
      "byteLength": 912,
      "target": 34962,
      "byteStride": 12
    },
    {
      "buffer": 0,
      "byteOffset": 28656,
      "byteLength": 912,
      "target": 34962,
      "byteStride": 12
    },
    {
      "buffer": 0,
      "byteOffset": 29568,
      "byteLength": 608,
      "target": 34962,
      "byteStride": 8
    },
    {
      "buffer": 0,
      "byteOffset": 30176,
      "byteLength": 528,
      "target": 34963
    },
    {
      "buffer": 0,
      "byteOffset": 30704,
      "byteLength": 125952,
      "target": 34962,
      "byteStride": 12
    },
    {
      "buffer": 0,
      "byteOffset": 156656,
      "byteLength": 125952,
      "target": 34962,
      "byteStride": 12
    },
    {
      "buffer": 0,
      "byteOffset": 282608,
      "byteLength": 62976,
      "target": 34963
    }
  ],
  "buffers": [
    {
      "byteLength": 345584,
      "uri": "data:application/octet-stream;base64,"
    }
  ],
  "accessors": [
    {
      "bufferView": 0,
      "componentType": 5126,
      "count": 192,
      "max": [
        24.5,
        24.5,
        6.017745018005371
      ],
      "min": [
        -24.5,
        -24.5,
        -4.100701332092285
      ],
      "type": "VEC3"
    },
    {
      "bufferView": 1,
      "componentType": 5126,
      "count": 192,
      "max": [
        1,
        1,
        1
      ],
      "min": [
        -1,
        -1,
        -1
      ],
      "type": "VEC3"
    },
    {
      "bufferView": 2,
      "componentType": 5125,
      "count": 288,
      "max": [
        191
      ],
      "min": [
        0
      ],
      "type": "SCALAR"
    },
    {
      "bufferView": 3,
      "componentType": 5126,
      "count": 192,
      "max": [
        24.5,
        24.5,
        6.017745018005371
      ],
      "min": [
        -24.5,
        -24.5,
        -4.100701332092285
      ],
      "type": "VEC3"
    },
    {
      "bufferView": 4,
      "componentType": 5126,
      "count": 192,
      "max": [
        1,
        1,
        1
      ],
      "min": [
        -1,
        -1,
        -1
      ],
      "type": "VEC3"
    },
    {
      "bufferView": 5,
      "componentType": 5125,
      "count": 288,
      "max": [
        191
      ],
      "min": [
        0
      ],
      "type": "SCALAR"
    },
    {
      "bufferView": 6,
      "componentType": 5126,
      "count": 112,
      "max": [
        24.5,
        24.5,
        45.15141677856445
      ],
      "min": [
        -24.5,
        -24.5,
        -45.15141677856445
      ],
      "type": "VEC3"
    },
    {
      "bufferView": 7,
      "componentType": 5126,
      "count": 112,
      "max": [
        1,
        1,
        1
      ],
      "min": [
        -1,
        -1,
        -1
      ],
      "type": "VEC3"
    },
    {
      "bufferView": 8,
      "componentType": 5125,
      "count": 168,
      "max": [
        111
      ],
      "min": [
        0
      ],
      "type": "SCALAR"
    },
    {
      "bufferView": 9,
      "componentType": 5126,
      "count": 432,
      "max": [
        1474.0806884765625,
        3193.68798828125,
        1322.826904296875
      ],
      "min": [
        -1352.2669677734375,
        -1439.42822265625,
        -1251.2303466796875
      ],
      "type": "VEC3"
    },
    {
      "bufferView": 10,
      "componentType": 5126,
      "count": 432,
      "max": [
        0.9154598712921143,
        0.9378838539123535,
        0.9443717002868652
      ],
      "min": [
        -0.9375772476196289,
        -0.9999999403953552,
        -0.9410849809646606
      ],
      "type": "VEC3"
    },
    {
      "bufferView": 11,
      "componentType": 5125,
      "count": 624,
      "max": [
        431
      ],
      "min": [
        0
      ],
      "type": "SCALAR"
    },
    {
      "bufferView": 12,
      "componentType": 5126,
      "count": 76,
      "max": [
        42.4277229309082,
        42.4277229309082,
        5
      ],
      "min": [
        -42.4277229309082,
        -42.4277229309082,
        0
      ],
      "type": "VEC3"
    },
    {
      "bufferView": 13,
      "componentType": 5126,
      "count": 76,
      "max": [
        1,
        1,
        1
      ],
      "min": [
        -1,
        -1,
        -1
      ],
      "type": "VEC3"
    },
    {
      "bufferView": 14,
      "componentType": 5126,
      "count": 76,
      "max": [
        1,
        1
      ],
      "min": [
        0,
        0
      ],
      "type": "VEC2"
    },
    {
      "bufferView": 15,
      "componentType": 5125,
      "count": 132,
      "max": [
        75
      ],
      "min": [
        0
      ],
      "type": "SCALAR"
    },
    {
      "bufferView": 16,
      "componentType": 5126,
      "count": 10496,
      "max": [
        237.99884033203125,
        250.31216430664062,
        238.05966186523438
      ],
      "min": [
        -237.57899475097656,
        -126.95759582519531,
        -237.97079467773438
      ],
      "type": "VEC3"
    },
    {
      "bufferView": 17,
      "componentType": 5126,
      "count": 10496,
      "max": [
        0.9996637105941772,
        1,
        0.9996163845062256
      ],
      "min": [
        -0.9996380805969238,
        -1,
        -0.9998025298118591
      ],
      "type": "VEC3"
    },
    {
      "bufferView": 18,
      "componentType": 5125,
      "count": 15744,
      "max": [
        10495
      ],
      "min": [
        0
      ],
      "type": "SCALAR"
    }
  ],
  "materials": [
    {
      "pbrMetallicRoughness": {
        "baseColorFactor": [
          0.6104955708001716,
          0.3813260114221238,
          0.20863687013464577,
          1
        ],
        "metallicFactor": 0,
        "roughnessFactor": 0.995
      },
      "doubleSided": false
    },
    {
      "pbrMetallicRoughness": {
        "baseColorFactor": [
          0.5906188409113381,
          0.35640014413537763,
          0.19806931954941637,
          1
        ],
        "metallicFactor": 0,
        "roughnessFactor": 0.995
      },
      "doubleSided": false
    },
    {
      "pbrMetallicRoughness": {
        "baseColorFactor": [
          0.5459670708177112,
          0.3635872836115398,
          0.230691399015888,
          1
        ],
        "metallicFactor": 0,
        "roughnessFactor": 0.995
      },
      "doubleSided": false
    },
    {
      "alphaMode": "BLEND",
      "pbrMetallicRoughness": {
        "baseColorFactor": [
          0.07421356837213867,
          0.20863687013464577,
          0.6172065624120635,
          0.1
        ],
        "metallicFactor": 0,
        "roughnessFactor": 0.99
      },
      "doubleSided": false
    },
    {
      "pbrMetallicRoughness": {
        "baseColorFactor": [
          0.4074136170335488,
          0.3257973642440689,
          0.2611961622819528,
          1
        ],
        "metallicFactor": 0,
        "roughnessFactor": 0.99
      },
      "doubleSided": false
    }
  ],
  "meshes": [
    {
      "primitives": [
        {
          "mode": 4,
          "attributes": {
            "POSITION": 0,
            "NORMAL": 1
          },
          "extras": {
            "type": "SubdivGeometry",
            "parameters": {
              "width": 49,
              "height": 49,
              "depth": 10.118446350097656
            }
          },
          "indices": 2,
          "material": 0
        }
      ]
    },
    {
      "primitives": [
        {
          "mode": 4,
          "attributes": {
            "POSITION": 3,
            "NORMAL": 4
          },
          "extras": {
            "type": "SubdivGeometry",
            "parameters": {
              "width": 49,
              "height": 49,
              "depth": 10.118446350097656
            }
          },
          "indices": 5,
          "material": 1
        }
      ]
    },
    {
      "primitives": [
        {
          "mode": 4,
          "attributes": {
            "POSITION": 6,
            "NORMAL": 7
          },
          "extras": {
            "type": "SubdivGeometry",
            "parameters": {
              "width": 49,
              "height": 49,
              "depth": 90.3028335571289
            }
          },
          "indices": 8,
          "material": 2
        }
      ]
    },
    {
      "primitives": [
        {
          "mode": 4,
          "attributes": {
            "POSITION": 9,
            "NORMAL": 10
          },
          "extras": {
            "type": "SubdivGeometry",
            "parameters": {
              "width": 2826.34765625,
              "height": 4633.1162109375,
              "depth": 2574.0572509765625
            }
          },
          "indices": 11,
          "material": 3
        }
      ]
    },
    {
      "primitives": [
        {
          "mode": 4,
          "attributes": {
            "POSITION": 12,
            "NORMAL": 13,
            "TEXCOORD_0": 14
          },
          "extras": {
            "parameters": {
              "width": 84.85544636610223,
              "subdivisions": 12,
              "roundness": 0,
              "extrudeBevelSize": 1,
              "extrudeBevelSegments": 2,
              "windingRule": 0,
              "depth": 5,
              "cornerRadius": [
                0,
                0,
                0,
                0
              ],
              "cornerType": 1,
              "extrudeDepth": 0,
              "height": 84.85544636610223,
              "type": "VectorGeometry",
              "shape": {
                "isClosed": true,
                "points": [
                  {
                    "id": "9ac2bb59-0cf5-4b39-81e2-032064fb23ab",
                    "fi": 0,
                    "data": {
                      "position": [
                        -42.427723183051114,
                        42.427723183051114
                      ],
                      "controlNext": {
                        "position": [
                          -42.427723183051114,
                          42.427723183051114
                        ]
                      },
                      "controlPrevious": {
                        "position": [
                          -42.427723183051114,
                          42.427723183051114
                        ]
                      },
                      "areControlsDirectionsMirrored": true,
                      "roundness": 0
                    }
                  },
                  {
                    "id": "025cd0cf-2b19-445a-99bf-65790b59d8a6",
                    "fi": 1,
                    "data": {
                      "position": [
                        42.427723183051114,
                        42.427723183051114
                      ],
                      "controlNext": {
                        "position": [
                          42.427723183051114,
                          42.427723183051114
                        ]
                      },
                      "controlPrevious": {
                        "position": [
                          42.427723183051114,
                          42.427723183051114
                        ]
                      },
                      "areControlsDirectionsMirrored": true,
                      "roundness": 0
                    }
                  },
                  {
                    "id": "e213ad0e-62a9-427a-a94f-3ae17eb5c024",
                    "fi": 2,
                    "data": {
                      "position": [
                        42.427723183051114,
                        -42.427723183051114
                      ],
                      "controlNext": {
                        "position": [
                          42.427723183051114,
                          -42.427723183051114
                        ]
                      },
                      "controlPrevious": {
                        "position": [
                          42.427723183051114,
                          -42.427723183051114
                        ]
                      },
                      "areControlsDirectionsMirrored": true,
                      "roundness": 0
                    }
                  },
                  {
                    "id": "a60efc0d-f67d-400b-a89e-7712bae6cd44",
                    "fi": 3,
                    "data": {
                      "position": [
                        -42.427723183051114,
                        -42.427723183051114
                      ],
                      "controlNext": {
                        "position": [
                          -42.427723183051114,
                          -42.427723183051114
                        ]
                      },
                      "controlPrevious": {
                        "position": [
                          -42.427723183051114,
                          -42.427723183051114
                        ]
                      },
                      "areControlsDirectionsMirrored": true,
                      "roundness": 0
                    }
                  }
                ],
                "roundness": 0,
                "shapeHoles": []
              }
            },
            "shape": {
              "points": [
                -42.427723183051114,
                42.427723183051114,
                -42.427723183051114,
                42.427723183051114,
                -42.427723183051114,
                42.427723183051114,
                0,
                42.427723183051114,
                42.427723183051114,
                42.427723183051114,
                42.427723183051114,
                42.427723183051114,
                42.427723183051114,
                0,
                42.427723183051114,
                -42.427723183051114,
                42.427723183051114,
                -42.427723183051114,
                42.427723183051114,
                -42.427723183051114,
                0,
                -42.427723183051114,
                -42.427723183051114,
                -42.427723183051114,
                -42.427723183051114,
                -42.427723183051114,
                -42.427723183051114,
                0
              ],
              "shapeHoles": [],
              "isClosed": true,
              "roundness": 0
            },
            "type": "VectorGeometry"
          },
          "indices": 15,
          "material": 4
        }
      ]
    },
    {
      "primitives": [
        {
          "mode": 4,
          "attributes": {
            "POSITION": 16,
            "NORMAL": 17
          },
          "extras": {
            "type": "SubdivGeometry",
            "parameters": {
              "width": 477.94537353515625,
              "height": 377.9213104248047,
              "depth": 477.9454345703125
            }
          },
          "indices": 18,
          "material": 4
        }
      ]
    }
  ],
  "cameras": [
    {
      "type": "orthographic",
      "orthographic": {
        "xmag": 6.165957865426924,
        "ymag": 2.462798286946684,
        "zfar": 100000,
        "znear": 0
      }
    }
  ]
}