{
  "asset": {
    "version": "2.0",
    "generator": "THREE.GLTFExporter"
  },
  "scenes": [
    {
      "nodes": [
        0
      ]
    }
  ],
  "scene": 0,
  "nodes": [
    {
      "children": [
        6
      ],
      "matrix": [
        0.01,
        0,
        0,
        0,
        0,
        0.01,
        0,
        0,
        0,
        0,
        0.01,
        0,
        0,
        0,
        0,
        1
      ]
    },
    {
      "matrix": [
        1.813973924116378e-16,
        3.072287390339429e-16,
        -0.9224234897538485,
        0,
        -0.9224234897538486,
        3.893466099744591e-18,
        -2.4526655018669697e-16,
        0,
        4.227908892838814e-18,
        0.9224234897538481,
        1.5361436951697144e-16,
        0,
        -7.276027630718151e-12,
        0.7613057587905131,
        -1.0800117081632307e-12,
        0.9999999999999993
      ],
      "name": "Ellipse 3",
      "mesh": 0
    },
    {
      "matrix": [
        3.2347396788110377e-16,
        3.1442282336263954e-16,
        -1.13282760810621,
        0,
        -1.13282760810621,
        -3.8153355085575336e-17,
        -3.5833609328949834e-16,
        0,
        8.064159195783185e-17,
        1.13282760810621,
        5.030765173802232e-16,
        0,
        -1.0913958284190044e-11,
        -2.6061527382995564,
        4.5461275794116303e-13,
        0.9999999999999991
      ],
      "name": "Ellipse 2",
      "mesh": 1
    },
    {
      "name": "Group",
      "children": [
        1,
        2
      ]
    },
    {
      "matrix": [
        0.16865559937944563,
        -1.1737399940869864e-8,
        0.9856750421908631,
        0,
        0.9333215522544405,
        0.32157047206768175,
        -0.15969756288538112,
        0,
        -0.31696398674821386,
        0.9468856485839081,
        0.054234671664074474,
        0,
        -344.34981002229233,
        946.7458853036547,
        29.08184988841038,
        1
      ],
      "camera": 0
    },
    {
      "matrix": [
        1,
        0,
        0,
        0,
        0,
        1,
        0,
        0,
        0,
        0,
        1,
        0,
        0,
        1,
        0,
        1
      ],
      "name": "Default Ambient Light"
    },
    {
      "name": "Scene 1",
      "children": [
        3,
        4,
        5
      ]
    }
  ],
  "bufferViews": [
    {
      "buffer": 0,
      "byteOffset": 0,
      "byteLength": 3072,
      "target": 34962,
      "byteStride": 12
    },
    {
      "buffer": 0,
      "byteOffset": 3072,
      "byteLength": 3072,
      "target": 34962,
      "byteStride": 12
    },
    {
      "buffer": 0,
      "byteOffset": 6144,
      "byteLength": 2048,
      "target": 34962,
      "byteStride": 8
    },
    {
      "buffer": 0,
      "byteOffset": 8192,
      "byteLength": 3024,
      "target": 34963
    },
    {
      "buffer": 0,
      "byteOffset": 11216,
      "byteLength": 3072,
      "target": 34962,
      "byteStride": 12
    },
    {
      "buffer": 0,
      "byteOffset": 14288,
      "byteLength": 3072,
      "target": 34962,
      "byteStride": 12
    },
    {
      "buffer": 0,
      "byteOffset": 17360,
      "byteLength": 2048,
      "target": 34962,
      "byteStride": 8
    },
    {
      "buffer": 0,
      "byteOffset": 19408,
      "byteLength": 3024,
      "target": 34963
    }
  ],
  "buffers": [
    {
      "byteLength": 22432,
      "uri": "data:application/octet-stream;base64,"
    }
  ],
  "accessors": [
    {
      "bufferView": 0,
      "componentType": 5126,
      "count": 256,
      "max": [
        23,
        23,
        2
      ],
      "min": [
        -23,
        -23,
        0
      ],
      "type": "VEC3"
    },
    {
      "bufferView": 1,
      "componentType": 5126,
      "count": 256,
      "max": [
        0.9987275004386902,
        0.9987275004386902,
        1
      ],
      "min": [
        -0.9987275004386902,
        -0.9987275004386902,
        -1
      ],
      "type": "VEC3"
    },
    {
      "bufferView": 2,
      "componentType": 5126,
      "count": 256,
      "max": [
        1,
        1
      ],
      "min": [
        0,
        0
      ],
      "type": "VEC2"
    },
    {
      "bufferView": 3,
      "componentType": 5125,
      "count": 756,
      "max": [
        255
      ],
      "min": [
        0
      ],
      "type": "SCALAR"
    },
    {
      "bufferView": 4,
      "componentType": 5126,
      "count": 256,
      "max": [
        23,
        23,
        2
      ],
      "min": [
        -23,
        -23,
        0
      ],
      "type": "VEC3"
    },
    {
      "bufferView": 5,
      "componentType": 5126,
      "count": 256,
      "max": [
        0.9987275004386902,
        0.9987275004386902,
        1
      ],
      "min": [
        -0.9987275004386902,
        -0.9987275004386902,
        -1
      ],
      "type": "VEC3"
    },
    {
      "bufferView": 6,
      "componentType": 5126,
      "count": 256,
      "max": [
        1,
        1
      ],
      "min": [
        0,
        0
      ],
      "type": "VEC2"
    },
    {
      "bufferView": 7,
      "componentType": 5125,
      "count": 756,
      "max": [
        255
      ],
      "min": [
        0
      ],
      "type": "SCALAR"
    }
  ],
  "materials": [
    {
      "pbrMetallicRoughness": {
        "baseColorFactor": [
          0.7038714677547968,
          0.42107895433751985,
          0.2399678524841239,
          1
        ],
        "metallicFactor": 0,
        "roughnessFactor": 0.995
      },
      "doubleSided": false
    },
    {
      "pbrMetallicRoughness": {
        "baseColorFactor": [
          0.25818285291079235,
          0.17144110072255403,
          0.10461648408208657,
          1
        ],
        "metallicFactor": 0,
        "roughnessFactor": 0.995
      },
      "doubleSided": false
    }
  ],
  "meshes": [
    {
      "primitives": [
        {
          "mode": 4,
          "attributes": {
            "POSITION": 0,
            "NORMAL": 1,
            "TEXCOORD_0": 2
          },
          "extras": {
            "shape": {
              "points": [
                -23,
                0,
                -23,
                -12.7025492454,
                -23,
                12.7025492454,
                0,
                0,
                23,
                -12.7025492454,
                23,
                12.7025492454,
                23,
                0,
                23,
                0,
                23,
                12.7025492454,
                23,
                -12.7025492454,
                0,
                0,
                -23,
                12.7025492454,
                -23,
                -12.7025492454,
                -23,
                0
              ],
              "shapeHoles": [],
              "isClosed": true,
              "roundness": 0
            },
            "parameters": {
              "width": 46,
              "depth": 2,
              "spikes": 64,
              "angle": 360,
              "innerRadius": 0,
              "extrudeBevelSize": 0,
              "extrudeBevelSegments": 1,
              "height": 46,
              "type": "EllipseGeometry"
            },
            "type": "EllipseGeometry"
          },
          "indices": 3,
          "material": 0
        }
      ]
    },
    {
      "primitives": [
        {
          "mode": 4,
          "attributes": {
            "POSITION": 4,
            "NORMAL": 5,
            "TEXCOORD_0": 6
          },
          "extras": {
            "shape": {
              "points": [
                -23,
                0,
                -23,
                -12.7025492454,
                -23,
                12.7025492454,
                0,
                0,
                23,
                -12.7025492454,
                23,
                12.7025492454,
                23,
                0,
                23,
                0,
                23,
                12.7025492454,
                23,
                -12.7025492454,
                0,
                0,
                -23,
                12.7025492454,
                -23,
                -12.7025492454,
                -23,
                0
              ],
              "shapeHoles": [],
              "isClosed": true,
              "roundness": 0
            },
            "parameters": {
              "width": 46,
              "depth": 2,
              "spikes": 64,
              "angle": 360,
              "innerRadius": 0,
              "extrudeBevelSize": 0,
              "extrudeBevelSegments": 1,
              "height": 46,
              "type": "EllipseGeometry"
            },
            "type": "EllipseGeometry"
          },
          "indices": 7,
          "material": 1
        }
      ]
    }
  ],
  "cameras": [
    {
      "type": "orthographic",
      "orthographic": {
        "xmag": 5.022211218626889,
        "ymag": 2.0424632252497146,
        "zfar": 100000,
        "znear": 0
      }
    }
  ]
}