{
  "asset": {
    "version": "2.0",
    "generator": "THREE.GLTFExporter"
  },
  "scenes": [
    {
      "nodes": [
        0
      ]
    }
  ],
  "scene": 0,
  "nodes": [
    {
      "children": [
        12
      ],
      "matrix": [
        0.01,
        0,
        0,
        0,
        0,
        0.01,
        0,
        0,
        0,
        0,
        0.01,
        0,
        0,
        0,
        0,
        1
      ]
    },
    {
      "matrix": [
        0.6378101595799173,
        0.2739417031062575,
        -0.025319546936258444,
        0,
        -0.2745923870912005,
        0.6378269454328842,
        -0.016209393957798586,
        0,
        0.016856960264810587,
        0.024893107483138853,
        0.6939618951438421,
        0,
        -112.52986489555681,
        -157.4797680864183,
        109.5797340416765,
        1
      ],
      "name": "Cylinder 5",
      "mesh": 0
    },
    {
      "matrix": [
        0.9981628492172281,
        0.060491761805769144,
        0.00341660594440711,
        0,
        -0.06049176180576913,
        0.991808881819002,
        0.11249839420442725,
        0,
        0.0034166059444071645,
        -0.11249839420442725,
        0.9936460326017739,
        0,
        -44.07804721983746,
        -39.938495838498056,
        54.37578603405541,
        1
      ],
      "name": "Cylinder 3",
      "mesh": 1
    },
    {
      "matrix": [
        -0.7660444431189944,
        4.374590104131642e-17,
        0.6427876096865527,
        0,
        9.381338752702731e-17,
        1,
        4.374590104131549e-17,
        0,
        -0.6427876096865527,
        9.381338752702924e-17,
        -0.7660444431189944,
        0,
        15.516011230857478,
        -325.52722167968756,
        56.47741409384064,
        1
      ],
      "name": "Cube 2",
      "mesh": 2
    },
    {
      "matrix": [
        -0.7766416929401403,
        1.7000290064572966e-16,
        -0.6299426011845072,
        0,
        -0.06059134983600452,
        0.9953634250000262,
        0.07470167666971299,
        0,
        0.6270218250684371,
        0.09618550915920608,
        -0.7730407354827171,
        0,
        -42.672125902204456,
        -329.5839814933605,
        149.32750117030488,
        1
      ],
      "name": "Cube 6",
      "mesh": 3
    },
    {
      "matrix": [
        0.9861782644528735,
        1.3877787807814506e-16,
        0.16568775066590005,
        0,
        0.04862646588267259,
        0.9559644264562143,
        -0.2894261255761042,
        0,
        -0.1583915955361476,
        0.2934825639628944,
        0.9427513389612772,
        0,
        54.37281143178256,
        -333.3700475276039,
        -110.28718623824,
        1
      ],
      "name": "Cube 5",
      "mesh": 4
    },
    {
      "matrix": [
        -0.233284226303686,
        2.415503868779911e-16,
        -0.9724085919807043,
        0,
        2.8569078103437505e-17,
        1,
        2.4155038687799045e-16,
        0,
        0.9724085919807043,
        2.856907810343758e-17,
        -0.233284226303686,
        0,
        -54.22712971405965,
        -331.48296365763616,
        26.031758737310167,
        1
      ],
      "name": "Cube 3",
      "mesh": 5
    },
    {
      "matrix": [
        -0.9999350491673182,
        1.210689185936892e-16,
        0.011397256106975782,
        0,
        1.2245672573179983e-16,
        1,
        1.2106891859368828e-16,
        0,
        -0.011397256106975782,
        1.2245672573180077e-16,
        -0.9999350491673182,
        0,
        -37.11163481460565,
        -325.5272216796875,
        68.06359547457602,
        1
      ],
      "name": "Cube 4",
      "mesh": 6
    },
    {
      "matrix": [
        1,
        0,
        0,
        0,
        0,
        1,
        0,
        0,
        0,
        0,
        1,
        0,
        -36.01725099244103,
        -325.5272216796875,
        -27.19809115825622,
        1
      ],
      "name": "Cube",
      "mesh": 7
    },
    {
      "matrix": [
        -0.018135846235601424,
        1.0335027077727319e-17,
        -0.041222516555625296,
        0,
        9.724154926145132e-19,
        0.04510070037388259,
        1.0578843205082345e-17,
        0,
        0.04128946993298252,
        8.963049812318453e-18,
        -0.018165302374094708,
        0,
        -1.1368683772161603e-13,
        -3.552713678800501e-14,
        0,
        1.0000000000000002
      ],
      "name": "Group",
      "children": [
        1,
        2,
        3,
        4,
        5,
        6,
        7,
        8
      ]
    },
    {
      "matrix": [
        0.7878859896484862,
        5.551115123125783e-17,
        0.6158211325666125,
        0,
        0.1480831468096813,
        0.9706579232017248,
        -0.18945864392171952,
        0,
        -0.5977516616008423,
        0.24046454234609005,
        0.7647677784319353,
        0,
        -597.751661600842,
        240.46454234608998,
        764.7677784319352,
        1
      ],
      "camera": 0
    },
    {
      "matrix": [
        1,
        0,
        0,
        0,
        0,
        1,
        0,
        0,
        0,
        0,
        1,
        0,
        0,
        1,
        0,
        1
      ],
      "name": "Default Ambient Light"
    },
    {
      "name": "Scene 1",
      "children": [
        9,
        10,
        11
      ]
    }
  ],
  "bufferViews": [
    {
      "buffer": 0,
      "byteOffset": 0,
      "byteLength": 264,
      "target": 34962,
      "byteStride": 12
    },
    {
      "buffer": 0,
      "byteOffset": 264,
      "byteLength": 264,
      "target": 34962,
      "byteStride": 12
    },
    {
      "buffer": 0,
      "byteOffset": 528,
      "byteLength": 176,
      "target": 34962,
      "byteStride": 8
    },
    {
      "buffer": 0,
      "byteOffset": 704,
      "byteLength": 72,
      "target": 34963
    },
    {
      "buffer": 0,
      "byteOffset": 776,
      "byteLength": 264,
      "target": 34962,
      "byteStride": 12
    },
    {
      "buffer": 0,
      "byteOffset": 1040,
      "byteLength": 264,
      "target": 34962,
      "byteStride": 12
    },
    {
      "buffer": 0,
      "byteOffset": 1304,
      "byteLength": 176,
      "target": 34962,
      "byteStride": 8
    },
    {
      "buffer": 0,
      "byteOffset": 1480,
      "byteLength": 72,
      "target": 34963
    },
    {
      "buffer": 0,
      "byteOffset": 1552,
      "byteLength": 5376,
      "target": 34962,
      "byteStride": 12
    },
    {
      "buffer": 0,
      "byteOffset": 6928,
      "byteLength": 5376,
      "target": 34962,
      "byteStride": 12
    },
    {
      "buffer": 0,
      "byteOffset": 12304,
      "byteLength": 2688,
      "target": 34963
    },
    {
      "buffer": 0,
      "byteOffset": 14992,
      "byteLength": 5376,
      "target": 34962,
      "byteStride": 12
    },
    {
      "buffer": 0,
      "byteOffset": 20368,
      "byteLength": 5376,
      "target": 34962,
      "byteStride": 12
    },
    {
      "buffer": 0,
      "byteOffset": 25744,
      "byteLength": 2688,
      "target": 34963
    },
    {
      "buffer": 0,
      "byteOffset": 28432,
      "byteLength": 5376,
      "target": 34962,
      "byteStride": 12
    },
    {
      "buffer": 0,
      "byteOffset": 33808,
      "byteLength": 5376,
      "target": 34962,
      "byteStride": 12
    },
    {
      "buffer": 0,
      "byteOffset": 39184,
      "byteLength": 2688,
      "target": 34963
    },
    {
      "buffer": 0,
      "byteOffset": 41872,
      "byteLength": 5376,
      "target": 34962,
      "byteStride": 12
    },
    {
      "buffer": 0,
      "byteOffset": 47248,
      "byteLength": 5376,
      "target": 34962,
      "byteStride": 12
    },
    {
      "buffer": 0,
      "byteOffset": 52624,
      "byteLength": 2688,
      "target": 34963
    },
    {
      "buffer": 0,
      "byteOffset": 55312,
      "byteLength": 5376,
      "target": 34962,
      "byteStride": 12
    },
    {
      "buffer": 0,
      "byteOffset": 60688,
      "byteLength": 5376,
      "target": 34962,
      "byteStride": 12
    },
    {
      "buffer": 0,
      "byteOffset": 66064,
      "byteLength": 2688,
      "target": 34963
    },
    {
      "buffer": 0,
      "byteOffset": 68752,
      "byteLength": 5376,
      "target": 34962,
      "byteStride": 12
    },
    {
      "buffer": 0,
      "byteOffset": 74128,
      "byteLength": 5376,
      "target": 34962,
      "byteStride": 12
    },
    {
      "buffer": 0,
      "byteOffset": 79504,
      "byteLength": 2688,
      "target": 34963
    }
  ],
  "buffers": [
    {
      "byteLength": 82192,
      "uri": "data:application/octet-stream;base64,"
    }
  ],
  "accessors": [
    {
      "bufferView": 0,
      "componentType": 5126,
      "count": 22,
      "max": [
        9.52627944946289,
        257.00970458984375,
        11
      ],
      "min": [
        -9.52627944946289,
        -257.00970458984375,
        -5.5
      ],
      "type": "VEC3"
    },
    {
      "bufferView": 1,
      "componentType": 5126,
      "count": 22,
      "max": [
        0.8660253882408142,
        1,
        1
      ],
      "min": [
        -0.8660253882408142,
        -1,
        -0.5
      ],
      "type": "VEC3"
    },
    {
      "bufferView": 2,
      "componentType": 5126,
      "count": 22,
      "max": [
        1,
        1
      ],
      "min": [
        0,
        0
      ],
      "type": "VEC2"
    },
    {
      "bufferView": 3,
      "componentType": 5123,
      "count": 36,
      "max": [
        21
      ],
      "min": [
        0
      ],
      "type": "SCALAR"
    },
    {
      "bufferView": 4,
      "componentType": 5126,
      "count": 22,
      "max": [
        5.196152210235596,
        300,
        6
      ],
      "min": [
        -5.196152210235596,
        -300,
        -3
      ],
      "type": "VEC3"
    },
    {
      "bufferView": 5,
      "componentType": 5126,
      "count": 22,
      "max": [
        0.8660253882408142,
        1,
        1
      ],
      "min": [
        -0.8660253882408142,
        -1,
        -0.5
      ],
      "type": "VEC3"
    },
    {
      "bufferView": 6,
      "componentType": 5126,
      "count": 22,
      "max": [
        1,
        1
      ],
      "min": [
        0,
        0
      ],
      "type": "VEC2"
    },
    {
      "bufferView": 7,
      "componentType": 5123,
      "count": 36,
      "max": [
        21
      ],
      "min": [
        0
      ],
      "type": "SCALAR"
    },
    {
      "bufferView": 8,
      "componentType": 5126,
      "count": 448,
      "max": [
        21.384408950805664,
        675.26416015625,
        4.740254878997803
      ],
      "min": [
        -21.384408950805664,
        -20.16143035888672,
        -291.2281494140625
      ],
      "type": "VEC3"
    },
    {
      "bufferView": 9,
      "componentType": 5126,
      "count": 448,
      "max": [
        0.9864472150802612,
        0.9109631180763245,
        0.9967738389968872
      ],
      "min": [
        -0.986447274684906,
        -0.8542690873146057,
        -0.9930376410484314
      ],
      "type": "VEC3"
    },
    {
      "bufferView": 10,
      "componentType": 5125,
      "count": 672,
      "max": [
        447
      ],
      "min": [
        0
      ],
      "type": "SCALAR"
    },
    {
      "bufferView": 11,
      "componentType": 5126,
      "count": 448,
      "max": [
        25.875133514404297,
        444.6641540527344,
        3.460386276245117
      ],
      "min": [
        -25.875133514404297,
        -16.1291446685791,
        -207.73974609375
      ],
      "type": "VEC3"
    },
    {
      "bufferView": 12,
      "componentType": 5126,
      "count": 448,
      "max": [
        0.9776142835617065,
        0.8837007284164429,
        0.9970602989196777
      ],
      "min": [
        -0.9810826778411865,
        -0.950614333152771,
        -0.9941003322601318
      ],
      "type": "VEC3"
    },
    {
      "bufferView": 13,
      "componentType": 5125,
      "count": 672,
      "max": [
        447
      ],
      "min": [
        0
      ],
      "type": "SCALAR"
    },
    {
      "bufferView": 14,
      "componentType": 5126,
      "count": 448,
      "max": [
        35.925804138183594,
        382.05841064453125,
        3.460386276245117
      ],
      "min": [
        -35.925804138183594,
        -13.911386489868164,
        -130.4314727783203
      ],
      "type": "VEC3"
    },
    {
      "bufferView": 15,
      "componentType": 5126,
      "count": 448,
      "max": [
        0.9796151518821716,
        0.8444027304649353,
        0.998134434223175
      ],
      "min": [
        -0.9796150326728821,
        -0.9825341105461121,
        -0.9958131313323975
      ],
      "type": "VEC3"
    },
    {
      "bufferView": 16,
      "componentType": 5125,
      "count": 672,
      "max": [
        447
      ],
      "min": [
        0
      ],
      "type": "SCALAR"
    },
    {
      "bufferView": 17,
      "componentType": 5126,
      "count": 448,
      "max": [
        25.875133514404297,
        442.9662780761719,
        3.460386276245117
      ],
      "min": [
        -25.875133514404297,
        -16.1291446685791,
        -130.4314727783203
      ],
      "type": "VEC3"
    },
    {
      "bufferView": 18,
      "componentType": 5126,
      "count": 448,
      "max": [
        0.9810598492622375,
        0.9274563789367676,
        0.9986100196838379
      ],
      "min": [
        -0.981059730052948,
        -0.9521778225898743,
        -0.9968822598457336
      ],
      "type": "VEC3"
    },
    {
      "bufferView": 19,
      "componentType": 5125,
      "count": 672,
      "max": [
        447
      ],
      "min": [
        0
      ],
      "type": "SCALAR"
    },
    {
      "bufferView": 20,
      "componentType": 5126,
      "count": 448,
      "max": [
        21.384408950805664,
        519.1292114257812,
        4.740254878997803
      ],
      "min": [
        -21.384408950805664,
        -20.16143035888672,
        -291.2281494140625
      ],
      "type": "VEC3"
    },
    {
      "bufferView": 21,
      "componentType": 5126,
      "count": 448,
      "max": [
        0.985848069190979,
        0.9109376668930054,
        0.9967738389968872
      ],
      "min": [
        -0.985848069190979,
        -0.8542690873146057,
        -0.9914996027946472
      ],
      "type": "VEC3"
    },
    {
      "bufferView": 22,
      "componentType": 5125,
      "count": 672,
      "max": [
        447
      ],
      "min": [
        0
      ],
      "type": "SCALAR"
    },
    {
      "bufferView": 23,
      "componentType": 5126,
      "count": 448,
      "max": [
        21.384408950805664,
        519.1292114257812,
        4.740254878997803
      ],
      "min": [
        -21.384408950805664,
        -20.16143035888672,
        -291.2281494140625
      ],
      "type": "VEC3"
    },
    {
      "bufferView": 24,
      "componentType": 5126,
      "count": 448,
      "max": [
        0.985848069190979,
        0.9109376668930054,
        0.9967738389968872
      ],
      "min": [
        -0.985848069190979,
        -0.8542690873146057,
        -0.9914996027946472
      ],
      "type": "VEC3"
    },
    {
      "bufferView": 25,
      "componentType": 5125,
      "count": 672,
      "max": [
        447
      ],
      "min": [
        0
      ],
      "type": "SCALAR"
    }
  ],
  "materials": [
    {
      "pbrMetallicRoughness": {
        "baseColorFactor": [
          0.1578599250221145,
          0.25859009431117486,
          0.12821330562661334,
          1
        ],
        "metallicFactor": 0,
        "roughnessFactor": 0.3
      },
      "doubleSided": false
    }
  ],
  "meshes": [
    {
      "primitives": [
        {
          "mode": 4,
          "attributes": {
            "POSITION": 0,
            "NORMAL": 1,
            "TEXCOORD_0": 2
          },
          "extras": {
            "parameters": {
              "width": 22,
              "radialSegments": 3,
              "heightSegments": 1,
              "openEnded": false,
              "thetaStart": 0,
              "thetaLength": 360,
              "cornerRadius": 0,
              "cornerSegments": 8,
              "hollow": 0,
              "height": 514.0194383367258,
              "depth": 22,
              "radiusTop": 11,
              "radiusBottom": 11,
              "type": "CylinderGeometry"
            },
            "type": "CylinderGeometry"
          },
          "indices": 3,
          "material": 0
        }
      ]
    },
    {
      "primitives": [
        {
          "mode": 4,
          "attributes": {
            "POSITION": 4,
            "NORMAL": 5,
            "TEXCOORD_0": 6
          },
          "extras": {
            "parameters": {
              "width": 12,
              "radialSegments": 3,
              "heightSegments": 1,
              "openEnded": false,
              "thetaStart": 0,
              "thetaLength": 360,
              "cornerRadius": 0,
              "cornerSegments": 8,
              "hollow": 0,
              "height": 600,
              "depth": 12,
              "radiusTop": 6,
              "radiusBottom": 6,
              "type": "CylinderGeometry"
            },
            "type": "CylinderGeometry"
          },
          "indices": 7,
          "material": 0
        }
      ]
    },
    {
      "primitives": [
        {
          "mode": 4,
          "attributes": {
            "POSITION": 8,
            "NORMAL": 9
          },
          "extras": {
            "type": "SubdivGeometry",
            "parameters": {
              "width": 45.20210647583008,
              "height": 711.64013671875,
              "depth": 315.9196767807007
            }
          },
          "indices": 10,
          "material": 0
        }
      ]
    },
    {
      "primitives": [
        {
          "mode": 4,
          "attributes": {
            "POSITION": 11,
            "NORMAL": 12
          },
          "extras": {
            "type": "SubdivGeometry",
            "parameters": {
              "width": 54.694549560546875,
              "height": 474.2183780670166,
              "depth": 225.4559202194214
            }
          },
          "indices": 13,
          "material": 0
        }
      ]
    },
    {
      "primitives": [
        {
          "mode": 4,
          "attributes": {
            "POSITION": 14,
            "NORMAL": 15
          },
          "extras": {
            "type": "SubdivGeometry",
            "parameters": {
              "width": 75.93953704833984,
              "height": 408.31597328186035,
              "depth": 149.2379026412964
            }
          },
          "indices": 16,
          "material": 0
        }
      ]
    },
    {
      "primitives": [
        {
          "mode": 4,
          "attributes": {
            "POSITION": 17,
            "NORMAL": 18
          },
          "extras": {
            "type": "SubdivGeometry",
            "parameters": {
              "width": 54.694549560546875,
              "height": 473.4098148345947,
              "depth": 149.2379026412964
            }
          },
          "indices": 19,
          "material": 0
        }
      ]
    },
    {
      "primitives": [
        {
          "mode": 4,
          "attributes": {
            "POSITION": 20,
            "NORMAL": 21
          },
          "extras": {
            "type": "SubdivGeometry",
            "parameters": {
              "width": 45.20210647583008,
              "height": 555.5051879882812,
              "depth": 315.9196767807007
            }
          },
          "indices": 22,
          "material": 0
        }
      ]
    },
    {
      "primitives": [
        {
          "mode": 4,
          "attributes": {
            "POSITION": 23,
            "NORMAL": 24
          },
          "extras": {
            "type": "SubdivGeometry",
            "parameters": {
              "width": 45.20210647583008,
              "height": 555.5051879882812,
              "depth": 315.9196767807007
            }
          },
          "indices": 25,
          "material": 0
        }
      ]
    }
  ],
  "cameras": [
    {
      "type": "orthographic",
      "orthographic": {
        "xmag": 3.0112817482317538,
        "ymag": 1.6311109469588665,
        "zfar": 100000,
        "znear": 0
      }
    }
  ]
}